<svg width="48" height="48" viewBox="0 0 48 48" fill="none" xmlns="http://www.w3.org/2000/svg">
<g clip-path="url(#clip0_103_8962)">
<path opacity="0.2" d="M11.9992 40.4998C11.6014 40.4998 11.2199 40.3417 10.9386 40.0604C10.6573 39.7791 10.4992 39.3976 10.4992 38.9998V30.9954C9.69905 31.374 8.81611 31.5441 7.93253 31.4899C7.04895 31.4357 6.19342 31.159 5.44548 30.6854C4.69755 30.2119 4.0815 29.5569 3.65463 28.7814C3.22775 28.0059 3.00391 27.135 3.00391 26.2498C3.00391 25.3645 3.22775 24.4937 3.65463 23.7181C4.0815 22.9426 4.69755 22.2876 5.44548 21.8141C6.19342 21.3405 7.04895 21.0638 7.93253 21.0096C8.81611 20.9554 9.69905 21.1255 10.4992 21.5041V13.4998C10.4992 13.1019 10.6573 12.7204 10.9386 12.4391C11.2199 12.1578 11.6014 11.9998 11.9992 11.9998H20.7536C20.3746 11.1996 20.2041 10.3165 20.2581 9.43271C20.312 8.54892 20.5886 7.69313 21.062 6.94494C21.5355 6.19676 22.1906 5.58047 22.9662 5.15343C23.7418 4.72638 24.6129 4.50244 25.4983 4.50244C26.3837 4.50244 27.2548 4.72638 28.0304 5.15343C28.8061 5.58047 29.4611 6.19676 29.9346 6.94494C30.4081 7.69313 30.6846 8.54892 30.7386 9.43271C30.7925 10.3165 30.622 11.1996 30.243 11.9998H38.9992C39.3971 11.9998 39.7786 12.1578 40.0599 12.4391C40.3412 12.7204 40.4992 13.1019 40.4992 13.4998V21.5041C39.6991 21.1255 38.8161 20.9554 37.9325 21.0096C37.049 21.0638 36.1934 21.3405 35.4455 21.8141C34.6976 22.2876 34.0815 22.9426 33.6546 23.7181C33.2278 24.4937 33.0039 25.3645 33.0039 26.2498C33.0039 27.135 33.2278 28.0059 33.6546 28.7814C34.0815 29.5569 34.6976 30.2119 35.4455 30.6854C36.1934 31.159 37.049 31.4357 37.9325 31.4899C38.8161 31.5441 39.6991 31.374 40.4992 30.9954V38.9998C40.4992 39.3976 40.3412 39.7791 40.0599 40.0604C39.7786 40.3417 39.3971 40.4998 38.9992 40.4998H11.9992Z" fill="#4169E1"/>
<path d="M11.9992 40.4998C11.6014 40.4998 11.2199 40.3417 10.9386 40.0604C10.6573 39.7791 10.4992 39.3976 10.4992 38.9998V30.9954C9.69905 31.374 8.81611 31.5441 7.93253 31.4899C7.04895 31.4357 6.19342 31.159 5.44548 30.6854C4.69755 30.2119 4.0815 29.5569 3.65463 28.7814C3.22775 28.0059 3.00391 27.135 3.00391 26.2498C3.00391 25.3645 3.22775 24.4937 3.65463 23.7181C4.0815 22.9426 4.69755 22.2876 5.44548 21.8141C6.19342 21.3405 7.04895 21.0638 7.93253 21.0096C8.81611 20.9554 9.69905 21.1255 10.4992 21.5041V13.4998C10.4992 13.1019 10.6573 12.7204 10.9386 12.4391C11.2199 12.1578 11.6014 11.9998 11.9992 11.9998H20.7536C20.3746 11.1996 20.2041 10.3165 20.2581 9.43271C20.312 8.54892 20.5886 7.69313 21.062 6.94494C21.5355 6.19676 22.1906 5.58047 22.9662 5.15343C23.7418 4.72638 24.6129 4.50244 25.4983 4.50244C26.3837 4.50244 27.2548 4.72638 28.0304 5.15343C28.8061 5.58047 29.4611 6.19676 29.9346 6.94494C30.4081 7.69313 30.6846 8.54892 30.7386 9.43271C30.7925 10.3165 30.622 11.1996 30.243 11.9998H38.9992C39.3971 11.9998 39.7786 12.1578 40.0599 12.4391C40.3412 12.7204 40.4992 13.1019 40.4992 13.4998V21.5041C39.6991 21.1255 38.8161 20.9554 37.9325 21.0096C37.0489 21.0638 36.1934 21.3405 35.4455 21.8141C34.6976 22.2876 34.0815 22.9426 33.6546 23.7181C33.2278 24.4937 33.0039 25.3645 33.0039 26.2498C33.0039 27.135 33.2278 28.0059 33.6546 28.7814C34.0815 29.5569 34.6976 30.2119 35.4455 30.6854C36.1934 31.159 37.0489 31.4357 37.9325 31.4899C38.8161 31.5441 39.6991 31.374 40.4992 30.9954V38.9998C40.4992 39.3976 40.3412 39.7791 40.0599 40.0604C39.7786 40.3417 39.3971 40.4998 38.9992 40.4998H11.9992Z" stroke="#4169E1" stroke-width="3" stroke-linecap="round" stroke-linejoin="round"/>
</g>
<defs>
<clipPath id="clip0_103_8962">
<rect width="48" height="48" fill="white"/>
</clipPath>
</defs>
</svg>
