<svg width="41" height="40" viewBox="0 0 41 40" fill="none" xmlns="http://www.w3.org/2000/svg">
<g opacity="0.6" clip-path="url(#clip0_261_1892)">
<path d="M18.625 11.25V25C18.6229 26.9885 17.8321 28.8949 16.426 30.301C15.0199 31.7071 13.1135 32.4979 11.125 32.5C10.7935 32.5 10.4755 32.3683 10.2411 32.1339C10.0067 31.8995 9.875 31.5815 9.875 31.25C9.875 30.9185 10.0067 30.6005 10.2411 30.3661C10.4755 30.1317 10.7935 30 11.125 30C12.4511 30 13.7229 29.4732 14.6605 28.5355C15.5982 27.5979 16.125 26.3261 16.125 25V23.75H6.75C6.08696 23.75 5.45107 23.4866 4.98223 23.0178C4.51339 22.5489 4.25 21.913 4.25 21.25V11.25C4.25 10.587 4.51339 9.95107 4.98223 9.48223C5.45107 9.01339 6.08696 8.75 6.75 8.75H16.125C16.788 8.75 17.4239 9.01339 17.8928 9.48223C18.3616 9.95107 18.625 10.587 18.625 11.25ZM34.25 8.75H24.875C24.212 8.75 23.5761 9.01339 23.1072 9.48223C22.6384 9.95107 22.375 10.587 22.375 11.25V21.25C22.375 21.913 22.6384 22.5489 23.1072 23.0178C23.5761 23.4866 24.212 23.75 24.875 23.75H34.25V25C34.25 26.3261 33.7232 27.5979 32.7855 28.5355C31.8479 29.4732 30.5761 30 29.25 30C28.9185 30 28.6005 30.1317 28.3661 30.3661C28.1317 30.6005 28 30.9185 28 31.25C28 31.5815 28.1317 31.8995 28.3661 32.1339C28.6005 32.3683 28.9185 32.5 29.25 32.5C31.2385 32.4979 33.1449 31.7071 34.551 30.301C35.9571 28.8949 36.7479 26.9885 36.75 25V11.25C36.75 10.587 36.4866 9.95107 36.0178 9.48223C35.5489 9.01339 34.913 8.75 34.25 8.75Z" fill="#4169E1"/>
</g>
<defs>
<clipPath id="clip0_261_1892">
<rect width="40" height="40" fill="white" transform="translate(0.5)"/>
</clipPath>
</defs>
</svg>
