<svg width="48" height="48" viewBox="0 0 48 48" fill="none" xmlns="http://www.w3.org/2000/svg">
<g clip-path="url(#clip0_103_8943)">
<path opacity="0.2" d="M20.7816 34.9217C20.634 35.791 20.3161 36.6226 19.8462 37.3687C19.3763 38.1149 18.7637 38.7608 18.0434 39.2695C17.3232 39.7782 16.5096 40.1397 15.6493 40.3331C14.7891 40.5266 13.899 40.5482 13.0304 40.3967C11.2758 40.0749 9.72 39.0717 8.70288 37.6062C7.68576 36.1408 7.29006 34.3324 7.60226 32.5761L12.2898 5.7392C12.3589 5.35037 12.5787 5.00451 12.9013 4.77669C13.2239 4.54887 13.6233 4.45747 14.0129 4.52232L24.2635 6.3467C24.6533 6.41793 24.9991 6.64051 25.2253 6.96582C25.4515 7.29112 25.5399 7.69273 25.471 8.08295L20.7816 34.9217Z" fill="#4169E1"/>
<path d="M14.25 36C15.4926 36 16.5 34.9926 16.5 33.75C16.5 32.5074 15.4926 31.5 14.25 31.5C13.0074 31.5 12 32.5074 12 33.75C12 34.9926 13.0074 36 14.25 36Z" fill="#4169E1"/>
<path d="M20.7816 34.9217C20.634 35.791 20.3161 36.6226 19.8462 37.3687C19.3763 38.1149 18.7637 38.7608 18.0434 39.2695C17.3232 39.7782 16.5096 40.1397 15.6493 40.3331C14.7891 40.5266 13.899 40.5482 13.0304 40.3967C11.2758 40.0749 9.72 39.0717 8.70288 37.6062C7.68576 36.1408 7.29006 34.3324 7.60226 32.5761L12.2898 5.7392C12.3589 5.35037 12.5787 5.00451 12.9013 4.77669C13.2239 4.54887 13.6233 4.45747 14.0129 4.52232L24.2635 6.3467C24.6533 6.41793 24.9991 6.64051 25.2253 6.96582C25.4515 7.29112 25.5399 7.69273 25.471 8.08295L20.7816 34.9217Z" stroke="#4169E1" stroke-width="3" stroke-linecap="round" stroke-linejoin="round"/>
<path d="M43.5 29.2856V39C43.5 39.3978 43.342 39.7794 43.0607 40.0607C42.7794 40.342 42.3978 40.5 42 40.5H14.25" stroke="#4169E1" stroke-width="3" stroke-linecap="round" stroke-linejoin="round"/>
<path d="M22.7662 23.5801L37.9144 18.0901C38.2867 17.9557 38.697 17.9739 39.0559 18.1407C39.4149 18.3075 39.6933 18.6095 39.8306 18.9807L43.41 28.7701C43.4768 28.954 43.5067 29.1493 43.4979 29.3448C43.489 29.5402 43.4417 29.7321 43.3587 29.9092C43.2756 30.0864 43.1583 30.2454 43.0137 30.3771C42.869 30.5089 42.6998 30.6108 42.5156 30.677L16.53 40.0951C15.7999 40.3639 15.028 40.501 14.25 40.5001" stroke="#4169E1" stroke-width="3" stroke-linecap="round" stroke-linejoin="round"/>
</g>
<defs>
<clipPath id="clip0_103_8943">
<rect width="48" height="48" fill="white"/>
</clipPath>
</defs>
</svg>
