<svg width="151" height="32" viewBox="0 0 151 32" fill="none" xmlns="http://www.w3.org/2000/svg">
<g clip-path="url(#clip0_111_2773)">
<path d="M20.1751 10.6352H16.3214V23.5043C16.3214 24.241 16.1627 24.7935 15.8227 25.1619C15.5053 25.5302 15.0746 25.6914 14.5532 25.6914C14.0318 25.6914 13.6011 25.5072 13.2837 25.1388C12.9437 24.7705 12.785 24.218 12.785 23.5043V10.6352H8.93127C8.31921 10.6352 7.8885 10.4971 7.5938 10.2209C7.2991 9.94459 7.16309 9.59927 7.16309 9.16186C7.16309 8.72445 7.32177 8.33308 7.61647 8.07985C7.91116 7.80359 8.36454 7.68848 8.93127 7.68848H20.1524C20.7645 7.68848 21.2179 7.82661 21.5126 8.10287C21.8073 8.37913 21.966 8.72445 21.966 9.18488C21.966 9.64531 21.8073 9.99064 21.5126 10.2439C21.2179 10.5201 20.7645 10.6583 20.1524 10.6583L20.1751 10.6352Z" fill="#DAA520"/>
<path d="M78.117 9.02388C77.709 9.66848 77.3009 10.3361 76.8929 10.9807C76.8249 11.0958 76.7342 11.2109 76.6662 11.326C76.5982 11.2109 76.5075 11.1188 76.4395 11.0037C76.0542 10.4052 75.6461 9.78359 75.2834 9.162C74.8074 8.35625 74.966 7.36633 75.7595 6.83683C77.1876 5.91597 78.8651 7.50445 78.0944 9.00086L78.117 9.02388Z" fill="#4169E1"/>
<path d="M26.4087 14.1579V23.6888C26.4087 24.3564 26.25 24.8399 25.9553 25.1852C25.6379 25.5305 25.2525 25.6917 24.7765 25.6917C24.3004 25.6917 23.9151 25.5075 23.6204 25.1622C23.3257 24.8168 23.167 24.3104 23.167 23.6658V14.2269C23.167 13.5823 23.3257 13.0758 23.6204 12.7535C23.9151 12.4312 24.3004 12.2471 24.7765 12.2471C25.2525 12.2471 25.6379 12.4082 25.9553 12.7535C26.2726 13.0758 26.4087 13.5363 26.4087 14.1348V14.1579Z" fill="#DAA520"/>
<path d="M28.5176 23.6889V9.39252C28.5176 8.7249 28.6536 8.24144 28.9483 7.89612C29.243 7.5508 29.6284 7.38965 30.1271 7.38965C30.6258 7.38965 31.0112 7.5508 31.3059 7.89612C31.6006 8.24144 31.7592 8.7249 31.7592 9.39252V23.6889C31.7592 24.3566 31.6006 24.863 31.3059 25.1853C31.0112 25.5076 30.6031 25.6918 30.1271 25.6918C29.651 25.6918 29.2657 25.5076 28.971 25.1623C28.6763 24.817 28.5176 24.3105 28.5176 23.6659V23.6889Z" fill="#DAA520"/>
<path d="M43.5017 19.7981H37.1544C37.1544 20.5579 37.3131 21.2025 37.6078 21.778C37.9025 22.3535 38.2879 22.791 38.7639 23.0672C39.24 23.3665 39.7613 23.5046 40.3507 23.5046C40.9401 23.5046 41.0988 23.4586 41.4162 23.3665C41.7336 23.2744 42.0509 23.1363 42.3456 22.9291C42.6403 22.7219 42.935 22.5147 43.1844 22.2845C43.4337 22.0543 43.7738 21.755 44.1818 21.3636C44.3405 21.2255 44.5898 21.1564 44.8845 21.1564C45.1792 21.1564 45.4966 21.2485 45.7006 21.4327C45.9047 21.6169 46.018 21.8701 46.018 22.2154C46.018 22.5607 45.9046 22.86 45.678 23.2514C45.4513 23.6428 45.1112 24.0341 44.6352 24.4025C44.1818 24.7708 43.5924 25.0701 42.8897 25.3233C42.1869 25.5535 41.3708 25.6917 40.4641 25.6917C38.3785 25.6917 36.769 25.0931 35.5902 23.873C34.4341 22.6758 33.8447 21.0183 33.8447 18.9694C33.8447 16.9204 33.9807 17.0816 34.2754 16.2528C34.5701 15.424 34.9782 14.7104 35.5222 14.1118C36.0663 13.5133 36.7464 13.0528 37.5398 12.7305C38.3332 12.4082 39.2173 12.2471 40.1921 12.2471C41.1668 12.2471 42.5496 12.5233 43.4564 13.0528C44.3632 13.6053 45.0432 14.296 45.4966 15.1708C45.95 16.0226 46.1767 16.9204 46.1767 17.7953C46.1767 18.6701 45.95 19.1535 45.4739 19.4068C44.9979 19.66 44.3405 19.7751 43.5017 19.7751V19.7981ZM37.1544 17.9104H43.0484C42.9577 16.7823 42.663 15.9305 42.1416 15.378C41.6202 14.8255 40.9401 14.5492 40.1014 14.5492C39.2626 14.5492 38.6279 14.8255 38.1065 15.401C37.5851 15.9766 37.2677 16.8053 37.1544 17.9104Z" fill="#DAA520"/>
<path d="M58.7348 21.3631C58.7348 22.2839 58.5081 23.0436 58.0774 23.6882C57.6467 24.3328 56.9893 24.8163 56.1505 25.1616C55.2891 25.4839 54.269 25.6681 53.0448 25.6681C51.8207 25.6681 50.8913 25.4839 50.0525 25.1156C49.2138 24.7472 48.6017 24.3098 48.2163 23.7573C47.831 23.2048 47.627 22.6753 47.627 22.1228C47.627 21.5703 47.763 21.4551 48.0123 21.2019C48.2617 20.9487 48.5791 20.8105 48.9644 20.8105C49.3498 20.8105 49.5765 20.9026 49.7578 21.0638C49.9392 21.2249 50.1205 21.4782 50.2792 21.7774C50.6193 22.376 51.0046 22.8134 51.4807 23.0897C51.9341 23.389 52.5688 23.5271 53.3849 23.5271C54.201 23.5271 54.5637 23.389 54.9944 23.0897C55.4024 22.7904 55.6291 22.4681 55.6291 22.0767C55.6291 21.5012 55.4024 21.0638 54.9717 20.8105C54.541 20.5343 53.8383 20.281 52.8408 20.0508C51.73 19.7746 50.8233 19.4753 50.1205 19.153C49.4178 18.8537 48.8511 18.4393 48.443 17.9328C48.0123 17.4264 47.8083 16.8048 47.8083 16.0681C47.8083 15.3314 48.0123 14.7789 48.3977 14.2033C48.7831 13.6048 49.3498 13.1444 50.1205 12.799C50.8686 12.4537 51.7981 12.2695 52.8635 12.2695C53.9289 12.2695 54.4503 12.3616 55.1304 12.5458C55.8105 12.73 56.3545 12.9602 56.8079 13.2595C57.2613 13.5587 57.6013 13.881 57.828 14.2494C58.0547 14.6177 58.1681 14.9631 58.1681 15.3084C58.1681 15.6537 58.032 15.999 57.7827 16.2292C57.5333 16.4595 57.1706 16.5976 56.7172 16.5976C56.2639 16.5976 56.1052 16.5055 55.8785 16.2983C55.6518 16.1141 55.3798 15.8149 55.0851 15.4235C54.8357 15.1012 54.541 14.848 54.2236 14.6408C53.9063 14.4336 53.4302 14.3415 52.8635 14.3415C52.2968 14.3415 51.7981 14.4796 51.39 14.7328C51.0046 14.9861 50.8006 15.3084 50.8006 15.6767C50.8006 16.0451 50.9366 16.2983 51.2313 16.5285C51.526 16.7587 51.9114 16.9429 52.3874 17.081C52.8635 17.2192 53.5436 17.4033 54.3823 17.6105C55.3798 17.8638 56.2185 18.1631 56.8532 18.5084C57.488 18.8537 57.964 19.2681 58.3041 19.7285C58.6441 20.189 58.8028 20.7415 58.8028 21.34L58.7348 21.3631Z" fill="#DAA520"/>
<path d="M71.7018 10.4516H64.7424V14.9869H70.5457C71.0898 14.9869 71.4978 15.102 71.7472 15.3552C72.0192 15.6085 72.1552 15.9308 72.1552 16.3452C72.1552 16.7595 72.0192 17.0818 71.7472 17.3121C71.4751 17.5423 71.0671 17.6804 70.5457 17.6804H64.7424V23.5049C64.7424 24.2416 64.5837 24.7941 64.2437 25.1624C63.9263 25.5308 63.4956 25.6919 62.9742 25.6919C62.4528 25.6919 62.0221 25.5077 61.7048 25.1394C61.3647 24.7711 61.2061 24.2185 61.2061 23.5049V9.87609C61.2061 9.36961 61.2741 8.9322 61.4327 8.6099C61.5914 8.2876 61.8181 8.05738 62.1355 7.89623C62.4529 7.7581 62.8609 7.66602 63.3596 7.66602H71.6791C72.2459 7.66602 72.6539 7.80415 72.9259 8.05739C73.198 8.31062 73.334 8.63292 73.334 9.04731C73.334 9.4617 73.198 9.80703 72.9259 10.0603C72.6539 10.3135 72.2232 10.4516 71.6791 10.4516H71.7018Z" fill="#4169E1"/>
<path d="M26.2508 9.02388C25.8428 9.66848 25.4347 10.3361 25.0267 10.9807C24.9587 11.0958 24.868 11.2109 24.8 11.326C24.732 11.2109 24.6413 11.1188 24.5733 11.0037C24.1879 10.4052 23.7799 9.78359 23.4172 9.162C22.9411 8.35625 23.0998 7.36633 23.8932 6.83683C25.3214 5.91597 26.9989 7.50445 26.2282 9.00086L26.2508 9.02388Z" fill="#DAA520"/>
<path d="M78.2309 14.1579V23.6888C78.2309 24.3564 78.0722 24.8399 77.7776 25.1852C77.4602 25.5305 77.0748 25.6917 76.5988 25.6917C76.1227 25.6917 75.7373 25.5075 75.4426 25.1622C75.1479 24.8168 74.9893 24.3104 74.9893 23.6658V14.2269C74.9893 13.5823 75.1479 13.0758 75.4426 12.7535C75.7373 12.4312 76.1227 12.2471 76.5988 12.2471C77.0748 12.2471 77.4602 12.4082 77.7776 12.7535C78.0949 13.0989 78.2309 13.5363 78.2309 14.1348V14.1579Z" fill="#4169E1"/>
<path d="M82.9683 14.1122V14.5036C83.535 13.7439 84.1698 13.1684 84.8498 12.823C85.5299 12.4547 86.3007 12.2935 87.1848 12.2935C88.0688 12.2935 88.7943 12.4777 89.4743 12.8691C90.1544 13.2374 90.6531 13.7899 90.9931 14.4806C91.1972 14.8719 91.3559 15.3094 91.4012 15.7928C91.4692 16.2532 91.4919 16.8518 91.4919 17.5885V23.7122C91.4919 24.3799 91.3332 24.8633 91.0385 25.2086C90.7438 25.554 90.3584 25.7151 89.8824 25.7151C89.4063 25.7151 88.9983 25.5309 88.7036 25.1856C88.4089 24.8403 88.2502 24.3338 88.2502 23.6892V18.1871C88.2502 17.105 88.0915 16.2763 87.7968 15.7007C87.5021 15.1252 86.9127 14.8259 86.0286 14.8259C85.1445 14.8259 84.9178 15.0101 84.4418 15.3554C83.9657 15.7007 83.6257 16.1842 83.399 16.8058C83.2403 17.2892 83.1723 18.2101 83.1723 19.5684V23.6892C83.1723 24.3568 83.0136 24.8633 82.719 25.1856C82.4243 25.5079 82.0162 25.6921 81.5402 25.6921C81.0641 25.6921 80.6787 25.5079 80.384 25.1626C80.0893 24.8173 79.9307 24.3108 79.9307 23.6662V14.1353C79.9307 13.5137 80.0667 13.0302 80.3387 12.7309C80.6107 12.4317 80.9734 12.2705 81.4495 12.2705C81.9255 12.2705 81.9935 12.3396 82.2202 12.4777C82.4469 12.6158 82.6283 12.823 82.7643 13.0993C82.9003 13.3755 82.9683 13.6978 82.9683 14.1122Z" fill="#4169E1"/>
<path d="M117.834 19.7981H111.486C111.486 20.5579 111.645 21.2025 111.94 21.778C112.235 22.3535 112.62 22.791 113.096 23.0672C113.572 23.3665 114.116 23.5046 114.683 23.5046C115.249 23.5046 115.431 23.4586 115.748 23.3665C116.066 23.2744 116.383 23.1363 116.678 22.9291C116.972 22.7219 117.267 22.5147 117.516 22.2845C117.766 22.0543 118.106 21.755 118.514 21.3636C118.673 21.2255 118.922 21.1564 119.217 21.1564C119.511 21.1564 119.829 21.2485 120.033 21.4327C120.237 21.6169 120.35 21.8701 120.35 22.2154C120.35 22.5607 120.237 22.86 120.01 23.2514C119.783 23.6428 119.443 24.0341 118.967 24.4025C118.514 24.7708 117.924 25.0701 117.222 25.3233C116.519 25.5535 115.703 25.6917 114.796 25.6917C112.711 25.6917 111.101 25.0931 109.922 23.873C108.766 22.6758 108.177 21.0183 108.177 18.9694C108.177 16.9204 108.313 17.0816 108.607 16.2528C108.902 15.424 109.31 14.7104 109.854 14.1118C110.398 13.5133 111.078 13.0528 111.872 12.7305C112.665 12.4082 113.549 12.2471 114.547 12.2471C115.544 12.2471 116.904 12.5233 117.811 13.0528C118.718 13.6053 119.398 14.296 119.851 15.1708C120.305 16.0226 120.531 16.9204 120.531 17.7953C120.531 18.6701 120.305 19.1535 119.829 19.4068C119.353 19.66 118.695 19.7751 117.856 19.7751L117.834 19.7981ZM111.486 17.9104H117.38C117.312 16.7823 116.995 15.9305 116.474 15.378C115.952 14.8255 115.272 14.5492 114.433 14.5492C113.595 14.5492 112.96 14.8255 112.439 15.401C111.917 15.9766 111.6 16.8053 111.486 17.9104Z" fill="#4169E1"/>
<path d="M125.382 20.9261V23.6887C125.382 24.3563 125.224 24.8628 124.929 25.1851C124.612 25.5074 124.226 25.6915 123.75 25.6915C123.274 25.6915 122.889 25.5304 122.594 25.1851C122.299 24.8397 122.141 24.3563 122.141 23.6887V14.503C122.141 13.0297 122.662 12.293 123.727 12.293C124.793 12.293 124.657 12.4771 124.884 12.8225C125.11 13.1678 125.246 13.6743 125.269 14.3649C125.654 13.6973 126.062 13.1678 126.47 12.8225C126.878 12.4771 127.423 12.293 128.103 12.293C128.783 12.293 129.44 12.4771 130.097 12.8225C130.755 13.1678 131.05 13.6282 131.05 14.2038C131.05 14.7793 130.914 14.9405 130.642 15.1937C130.369 15.4469 130.075 15.5851 129.757 15.5851C129.44 15.5851 129.349 15.516 128.896 15.3548C128.443 15.2167 128.035 15.1246 127.695 15.1246C127.355 15.1246 126.833 15.2628 126.538 15.516C126.244 15.7692 125.994 16.1376 125.836 16.644C125.677 17.1505 125.564 17.7261 125.496 18.4167C125.428 19.1074 125.405 19.9361 125.405 20.9261H125.382Z" fill="#4169E1"/>
<path d="M142.86 21.364C142.86 22.2849 142.633 23.0446 142.202 23.6892C141.772 24.3338 141.114 24.8173 140.276 25.1626C139.414 25.4849 138.394 25.6691 137.17 25.6691C135.946 25.6691 135.016 25.4849 134.178 25.1166C133.339 24.7482 132.727 24.3108 132.341 23.7583C131.956 23.2058 131.752 22.6763 131.752 22.1237C131.752 21.5712 131.888 21.4561 132.137 21.2029C132.387 20.9496 132.704 20.8115 133.089 20.8115C133.475 20.8115 133.701 20.9036 133.883 21.0648C134.064 21.2259 134.246 21.4791 134.404 21.7784C134.744 22.377 135.13 22.8144 135.606 23.0907C136.059 23.3899 136.694 23.5281 137.51 23.5281C138.326 23.5281 138.689 23.3899 139.119 23.0907C139.55 22.7914 139.754 22.4691 139.754 22.0777C139.754 21.5022 139.527 21.0648 139.097 20.8115C138.666 20.5353 137.963 20.282 136.966 20.0518C135.855 19.7755 134.948 19.4763 134.246 19.154C133.543 18.8547 132.976 18.4403 132.568 17.9338C132.137 17.4273 131.933 16.8058 131.933 16.0691C131.933 15.3324 132.137 14.7799 132.523 14.2043C132.908 13.6058 133.475 13.1453 134.246 12.8C134.994 12.4547 135.923 12.2705 136.988 12.2705C138.054 12.2705 138.575 12.3626 139.255 12.5468C139.935 12.7309 140.48 12.9612 140.933 13.2604C141.386 13.5597 141.726 13.882 141.953 14.2504C142.18 14.6187 142.293 14.964 142.293 15.3094C142.293 15.6547 142.157 16 141.908 16.2302C141.658 16.4604 141.296 16.5986 140.842 16.5986C140.389 16.5986 140.23 16.5065 139.981 16.2993C139.754 16.1151 139.482 15.8158 139.187 15.4245C138.938 15.1022 138.643 14.8489 138.326 14.6417C137.986 14.4576 137.533 14.3425 136.966 14.3425C136.399 14.3425 135.9 14.4806 135.492 14.7338C135.107 14.9871 134.903 15.3094 134.903 15.6777C134.903 16.0461 135.039 16.2993 135.334 16.5295C135.628 16.7597 136.014 16.9439 136.49 17.082C136.966 17.2202 137.646 17.4043 138.485 17.6115C139.482 17.8648 140.321 18.164 140.956 18.5094C141.59 18.8547 142.066 19.2691 142.406 19.7295C142.724 20.1899 142.905 20.7425 142.905 21.341L142.86 21.364Z" fill="#4169E1"/>
<path d="M106.521 8.35639V18.8773C106.521 18.9924 106.521 19.0844 106.521 19.1996V19.2456C106.521 19.3377 106.521 19.4528 106.521 19.5449C106.521 19.5449 106.521 19.5909 106.521 19.6139C106.521 19.683 106.521 19.7751 106.499 19.8442C106.499 19.9593 106.453 20.0744 106.453 20.1895C106.453 20.2355 106.453 20.2816 106.431 20.3046C106.431 20.3967 106.385 20.4657 106.363 20.5578C106.34 20.6729 106.317 20.765 106.272 20.8801C106.249 20.9722 106.204 21.0873 106.181 21.1794C106.181 21.1794 106.181 21.2024 106.181 21.2255C106.136 21.3175 106.113 21.4096 106.068 21.5247C106.045 21.6168 106 21.6859 105.954 21.778C105.954 21.801 105.932 21.847 105.909 21.8701C105.864 21.9391 105.841 22.0312 105.796 22.1003C105.705 22.2844 105.592 22.4686 105.478 22.6298C105.41 22.7219 105.342 22.8139 105.274 22.9291C105.206 22.9981 105.161 23.0902 105.093 23.1593C105.093 23.1593 105.093 23.1823 105.07 23.2053C105.002 23.2744 104.957 23.3434 104.889 23.4355C104.821 23.5046 104.753 23.5967 104.685 23.6657C104.594 23.7578 104.504 23.8499 104.413 23.919C104.368 23.965 104.3 24.0111 104.254 24.0571C104.254 24.0571 104.209 24.0801 104.209 24.1032C104.164 24.1492 104.118 24.1722 104.073 24.2183C104.073 24.2183 104.073 24.2183 104.05 24.2183C104.005 24.2643 103.937 24.2873 103.892 24.3334C103.846 24.3794 103.778 24.4255 103.733 24.4485C103.688 24.4715 103.642 24.4945 103.597 24.5406C103.461 24.6327 103.302 24.7247 103.144 24.8168C103.076 24.8629 103.008 24.8859 102.939 24.9319C102.871 24.955 102.803 25.001 102.735 25.024C102.554 25.1161 102.373 25.1852 102.191 25.2542C102.101 25.2773 102.033 25.3233 101.942 25.3463C101.942 25.3463 101.942 25.3463 101.919 25.3463C101.829 25.3693 101.738 25.3924 101.647 25.4154C101.557 25.4384 101.443 25.4614 101.353 25.4845C101.285 25.4845 101.239 25.5075 101.171 25.5305C101.171 25.5305 101.126 25.5305 101.103 25.5305C101.035 25.5305 100.967 25.5305 100.899 25.5535C100.809 25.5535 100.741 25.5535 100.65 25.5765C100.605 25.5765 100.559 25.5765 100.491 25.5765C100.423 25.5765 100.355 25.5765 100.287 25.5765C100.265 25.5765 100.242 25.5765 100.219 25.5765C100.106 25.5765 100.015 25.5765 99.9019 25.5765C99.7885 25.5765 99.6752 25.5765 99.5845 25.5765C99.5165 25.5765 99.4485 25.5765 99.3805 25.5765C99.2898 25.5765 99.1991 25.5765 99.1084 25.5535C99.0178 25.5535 98.9271 25.5535 98.8364 25.5075C98.7457 25.5075 98.6551 25.4844 98.5644 25.4614C98.4737 25.4614 98.383 25.4154 98.2923 25.3924C98.247 25.3924 98.2017 25.3693 98.1337 25.3463C98.0657 25.3463 97.9977 25.3003 97.9297 25.2773C97.9297 25.2773 97.8843 25.2773 97.8616 25.2773C97.8163 25.2773 97.7483 25.2542 97.703 25.2312C97.635 25.2312 97.5896 25.1852 97.5216 25.1621C97.4309 25.1391 97.3629 25.0931 97.2722 25.0701C97.1589 25.024 97.0456 24.978 96.9322 24.9089C96.8642 24.8859 96.7962 24.8398 96.7282 24.8168C96.7055 24.8168 96.6602 24.7938 96.6375 24.7708C96.5695 24.7247 96.4788 24.6787 96.4108 24.6327C96.3201 24.5866 96.2295 24.5175 96.1388 24.4715C96.0481 24.4024 95.9575 24.3564 95.8668 24.2873C95.7761 24.2183 95.7081 24.1722 95.6174 24.1032C95.6174 24.1032 95.6174 24.1032 95.5947 24.1032C95.5267 24.0341 95.4361 23.965 95.3681 23.896C95.3 23.8269 95.2094 23.7578 95.1414 23.6888C95.0734 23.6197 94.9827 23.5276 94.9147 23.4355C94.8467 23.3665 94.7787 23.2744 94.7106 23.2053C94.7106 23.2053 94.688 23.1593 94.6653 23.1362C94.62 23.0902 94.5973 23.0442 94.552 22.9751C94.5066 22.9291 94.484 22.883 94.4386 22.837C94.4386 22.837 94.416 22.8139 94.416 22.7909C94.3706 22.7449 94.3253 22.6758 94.3026 22.6068C94.1893 22.4456 94.0986 22.2845 94.0079 22.1233C93.9626 22.0542 93.9399 21.9852 93.8946 21.9161C93.8492 21.847 93.8266 21.778 93.7812 21.6859C93.7359 21.5708 93.6905 21.4787 93.6452 21.3636C93.5772 21.2255 93.5319 21.0643 93.4865 20.9262C93.4865 20.8571 93.4412 20.788 93.4185 20.719C93.4185 20.696 93.4185 20.6499 93.3958 20.6269C93.3958 20.5578 93.3505 20.4657 93.3278 20.3967C93.2145 19.8442 93.1692 19.2686 93.1465 18.6931C93.1465 18.578 93.1465 18.4629 93.1465 18.3478C93.1465 18.2557 93.1465 18.1866 93.1465 18.0945C93.1692 17.8413 93.2145 17.588 93.2598 17.3578C93.2825 17.2427 93.3052 17.1506 93.3505 17.0355C93.3732 16.9204 93.4185 16.8283 93.4412 16.7132C93.4639 16.5981 93.5092 16.506 93.5545 16.4139C93.5999 16.3219 93.6225 16.2068 93.6679 16.1147C93.7132 16.0226 93.7585 15.9305 93.8039 15.8154C93.8039 15.8154 93.8039 15.8154 93.8039 15.7924C93.8492 15.7003 93.8946 15.6312 93.9399 15.5391C93.9399 15.5391 93.9399 15.5161 93.9626 15.4931C94.0079 15.424 94.0532 15.355 94.0759 15.2859C94.0759 15.2629 94.0986 15.2398 94.1213 15.2168C94.1666 15.1478 94.2119 15.0787 94.2573 15.0096C94.3026 14.9406 94.3706 14.8485 94.416 14.7794C94.416 14.7794 94.416 14.7564 94.4386 14.7334C94.5066 14.6643 94.552 14.5952 94.62 14.5032C94.688 14.4111 94.756 14.342 94.824 14.2729C94.892 14.2039 94.96 14.1118 95.0507 14.0427C95.0507 14.0427 95.0507 14.0427 95.0734 14.0427C95.1414 13.9737 95.2094 13.9046 95.2774 13.8355C95.3454 13.7665 95.4361 13.6974 95.5041 13.6514C95.5721 13.5823 95.6401 13.5362 95.7308 13.4672C95.9348 13.306 96.1388 13.1679 96.3428 13.0528C96.4108 13.0068 96.4788 12.9837 96.5242 12.9377C96.7509 12.8226 96.9776 12.7075 97.2269 12.6154C97.2949 12.5924 97.3403 12.5693 97.4083 12.5463C97.6123 12.4773 97.7936 12.4082 97.9977 12.3621C98.043 12.3621 98.111 12.3391 98.1563 12.3161C98.2243 12.3161 98.2697 12.2931 98.3377 12.2701C98.7684 12.178 99.2218 12.1319 99.6752 12.1319C100.129 12.1319 99.8792 12.1319 99.9925 12.1319C100.083 12.1319 100.151 12.1319 100.242 12.1319C100.31 12.1319 100.355 12.1319 100.423 12.1319C100.514 12.1319 100.605 12.1319 100.695 12.178C100.741 12.178 100.786 12.178 100.809 12.178C100.854 12.178 100.922 12.178 100.967 12.201C101.013 12.201 101.058 12.201 101.103 12.224C101.149 12.224 101.194 12.224 101.239 12.247C101.285 12.247 101.353 12.2701 101.398 12.2931C101.511 12.3161 101.625 12.3621 101.738 12.3852C101.783 12.3852 101.851 12.4082 101.897 12.4312C101.942 12.4312 101.987 12.4542 102.033 12.4773C102.169 12.5233 102.327 12.5924 102.463 12.6614C102.509 12.6614 102.554 12.7075 102.622 12.7305C102.713 12.7765 102.826 12.8226 102.917 12.8916C103.008 12.9377 103.076 12.9837 103.144 13.0298V8.51754C103.144 7.80387 103.28 7.27438 103.552 6.90603C103.824 6.53769 104.232 6.35352 104.753 6.35352C105.274 6.35352 105.66 6.51466 105.954 6.85999C106.227 7.20531 106.385 7.68877 106.385 8.33337L106.521 8.35639Z" fill="#4169E1"/>
<path d="M99.8117 22.8605C101.94 22.8605 103.665 21.1083 103.665 18.9469C103.665 16.7854 101.94 15.0332 99.8117 15.0332C97.6834 15.0332 95.958 16.7854 95.958 18.9469C95.958 21.1083 97.6834 22.8605 99.8117 22.8605Z" fill="white"/>
<path d="M102.294 21.5538L101.381 22.2734L103.437 24.9657L104.351 24.246L102.294 21.5538Z" fill="white"/>
<path d="M97.023 19.4301C96.9097 19.4301 96.819 19.361 96.7963 19.2459C96.7736 19.0848 96.751 18.9006 96.751 18.7395C96.751 17.4503 97.6577 16.2992 98.9045 16.0229C99.0179 15.9999 99.1539 16.069 99.1766 16.2071C99.1992 16.3222 99.1312 16.4603 98.9952 16.4833C97.9524 16.7136 97.2044 17.6805 97.2044 18.7625C97.2044 19.8445 97.2044 19.0387 97.2497 19.1769C97.2724 19.292 97.1817 19.4301 97.0683 19.4531C97.0683 19.4531 97.0457 19.4531 97.023 19.4531V19.4301Z" fill="#4169E1"/>
<path d="M150.114 32.0459H-0.0683594V0.0458984H150.114V32.0459ZM0.543705 31.4243H149.479V0.66748H0.543705V31.4243Z" fill="#DAA520"/>
</g>
<defs>
<clipPath id="clip0_111_2773">
<rect width="150.069" height="32" fill="white"/>
</clipPath>
</defs>
</svg>
