<svg width="151" height="32" viewBox="0 0 151 32" fill="none" xmlns="http://www.w3.org/2000/svg">
<g clip-path="url(#clip0_36_818)">
<path d="M20.1756 10.636H16.3219V23.505C16.3219 24.2417 16.1632 24.7942 15.8231 25.1626C15.5058 25.5309 15.0751 25.6921 14.5537 25.6921C14.0323 25.6921 13.6016 25.5079 13.2842 25.1396C12.9442 24.7712 12.7855 24.2187 12.7855 23.505V10.636H8.93176C8.31969 10.636 7.88898 10.4978 7.59429 10.2216C7.29959 9.94532 7.16357 9.6 7.16357 9.16259C7.16357 8.72518 7.32226 8.33382 7.61695 8.08058C7.91165 7.80432 8.36503 7.68921 8.93176 7.68921H20.1529C20.765 7.68921 21.2184 7.82734 21.5131 8.1036C21.8078 8.37986 21.9664 8.72518 21.9664 9.18561C21.9664 9.64604 21.8078 9.99137 21.5131 10.2446C21.2184 10.5209 20.765 10.659 20.1529 10.659L20.1756 10.636Z" fill="#F7941D"/>
<path d="M78.1178 9.02446C77.7097 9.66906 77.3017 10.3367 76.8936 10.9813C76.8256 11.0964 76.735 11.2115 76.6669 11.3266C76.5989 11.2115 76.5083 11.1194 76.4403 11.0043C76.0549 10.4057 75.6468 9.78417 75.2841 9.16258C74.8081 8.35683 74.9668 7.36691 75.7602 6.83741C77.1883 5.91655 78.8658 7.50503 78.0951 9.00144L78.1178 9.02446Z" fill="#27AAE1"/>
<path d="M26.4094 14.1583V23.6892C26.4094 24.3568 26.2507 24.8403 25.956 25.1856C25.6386 25.5309 25.2533 25.6921 24.7772 25.6921C24.3012 25.6921 23.9158 25.5079 23.6211 25.1626C23.3264 24.8172 23.1677 24.3108 23.1677 23.6662V14.2273C23.1677 13.5827 23.3264 13.0762 23.6211 12.7539C23.9158 12.4316 24.3012 12.2475 24.7772 12.2475C25.2533 12.2475 25.6386 12.4086 25.956 12.7539C26.2734 13.0762 26.4094 13.5367 26.4094 14.1352V14.1583Z" fill="#F7941D"/>
<path d="M28.5178 23.6892V9.3928C28.5178 8.72517 28.6538 8.24172 28.9485 7.89639C29.2432 7.55107 29.6286 7.38992 30.1273 7.38992C30.626 7.38992 31.0114 7.55107 31.3061 7.89639C31.6008 8.24172 31.7595 8.72517 31.7595 9.3928V23.6892C31.7595 24.3568 31.6008 24.8633 31.3061 25.1856C31.0114 25.5079 30.6034 25.6921 30.1273 25.6921C29.6513 25.6921 29.2659 25.5079 28.9712 25.1626C28.6765 24.8173 28.5178 24.3108 28.5178 23.6662V23.6892Z" fill="#F7941D"/>
<path d="M43.502 19.7985H37.1546C37.1546 20.5583 37.3133 21.2029 37.608 21.7784C37.9027 22.3539 38.2881 22.7914 38.7641 23.0676C39.2402 23.3669 39.7616 23.505 40.351 23.505C40.9404 23.505 41.0991 23.459 41.4164 23.3669C41.7338 23.2748 42.0512 23.1367 42.3459 22.9295C42.6406 22.7223 42.9353 22.5151 43.1846 22.2849C43.434 22.0547 43.774 21.7554 44.182 21.364C44.3407 21.2259 44.5901 21.1568 44.8848 21.1568C45.1795 21.1568 45.4969 21.2489 45.7009 21.4331C45.9049 21.6173 46.0182 21.8705 46.0182 22.2158C46.0182 22.5611 45.9049 22.8604 45.6782 23.2518C45.4515 23.6431 45.1115 24.0345 44.6354 24.4029C44.182 24.7712 43.5927 25.0705 42.8899 25.3237C42.1872 25.5539 41.3711 25.6921 40.4643 25.6921C38.3788 25.6921 36.7693 25.0935 35.5905 23.8734C34.4344 22.6762 33.845 21.0187 33.845 18.9698C33.845 16.9208 33.981 17.082 34.2757 16.2532C34.5704 15.4244 34.9784 14.7108 35.5225 14.1122C36.0665 13.5136 36.7466 13.0532 37.54 12.7309C38.3334 12.4086 39.2175 12.2475 40.1923 12.2475C41.1671 12.2475 42.5499 12.5237 43.4566 13.0532C44.3634 13.6057 45.0435 14.2964 45.4969 15.1712C45.9502 16.023 46.1769 16.9208 46.1769 17.7957C46.1769 18.6705 45.9502 19.1539 45.4742 19.4072C44.9981 19.6604 44.3407 19.7755 43.502 19.7755V19.7985ZM37.1546 17.9108H43.0486C42.9579 16.7827 42.6632 15.9309 42.1418 15.3784C41.6204 14.8259 40.9404 14.5496 40.1016 14.5496C39.2629 14.5496 38.6281 14.8259 38.1067 15.4014C37.5854 15.977 37.268 16.8057 37.1546 17.9108Z" fill="#F7941D"/>
<path d="M58.7355 21.364C58.7355 22.2849 58.5088 23.0446 58.0781 23.6892C57.6474 24.3338 56.99 24.8173 56.1512 25.1626C55.2898 25.4849 54.2697 25.6691 53.0456 25.6691C51.8215 25.6691 50.892 25.4849 50.0533 25.1166C49.2145 24.7482 48.6025 24.3108 48.2171 23.7583C47.8317 23.2058 47.6277 22.6763 47.6277 22.1237C47.6277 21.5712 47.7637 21.4561 48.0131 21.2029C48.2624 20.9496 48.5798 20.8115 48.9652 20.8115C49.3505 20.8115 49.5772 20.9036 49.7586 21.0648C49.9399 21.2259 50.1213 21.4791 50.28 21.7784C50.62 22.377 51.0054 22.8144 51.4814 23.0907C51.9348 23.3899 52.5695 23.5281 53.3856 23.5281C54.2017 23.5281 54.5644 23.3899 54.9951 23.0907C55.4032 22.7914 55.6298 22.4691 55.6298 22.0777C55.6298 21.5022 55.4032 21.0648 54.9724 20.8115C54.5417 20.5353 53.839 20.282 52.8416 20.0518C51.7308 19.7755 50.824 19.4763 50.1213 19.154C49.4185 18.8547 48.8518 18.4403 48.4438 17.9338C48.0131 17.4273 47.809 16.8058 47.809 16.0691C47.809 15.3324 48.0131 14.7799 48.3984 14.2043C48.7838 13.6058 49.3505 13.1453 50.1213 12.8C50.8694 12.4547 51.7988 12.2705 52.8642 12.2705C53.9297 12.2705 54.4511 12.3626 55.1311 12.5468C55.8112 12.7309 56.3553 12.9612 56.8086 13.2604C57.262 13.5597 57.6021 13.882 57.8287 14.2504C58.0554 14.6187 58.1688 14.964 58.1688 15.3094C58.1688 15.6547 58.0328 16 57.7834 16.2302C57.534 16.4604 57.1713 16.5986 56.718 16.5986C56.2646 16.5986 56.1059 16.5065 55.8792 16.2993C55.6525 16.1151 55.3805 15.8158 55.0858 15.4245C54.8364 15.1022 54.5417 14.8489 54.2244 14.6417C53.907 14.4345 53.431 14.3425 52.8642 14.3425C52.2975 14.3425 51.7988 14.4806 51.3907 14.7338C51.0054 14.9871 50.8013 15.3094 50.8013 15.6777C50.8013 16.0461 50.9374 16.2993 51.2321 16.5295C51.5268 16.7597 51.9121 16.9439 52.3882 17.082C52.8642 17.2202 53.5443 17.4043 54.3831 17.6115C55.3805 17.8648 56.2192 18.164 56.854 18.5094C57.4887 18.8547 57.9648 19.2691 58.3048 19.7295C58.6448 20.1899 58.8035 20.7425 58.8035 21.341L58.7355 21.364Z" fill="#F7941D"/>
<path d="M71.7023 10.4518H64.7429V14.987H70.5462C71.0902 14.987 71.4983 15.1021 71.7476 15.3554C72.0197 15.6086 72.1557 15.9309 72.1557 16.3453C72.1557 16.7597 72.0197 17.082 71.7476 17.3122C71.4756 17.5424 71.0676 17.6806 70.5462 17.6806H64.7429V23.505C64.7429 24.2417 64.5842 24.7942 64.2442 25.1626C63.9268 25.5309 63.4961 25.6921 62.9747 25.6921C62.4533 25.6921 62.0226 25.5079 61.7053 25.1396C61.3652 24.7712 61.2065 24.2187 61.2065 23.505V9.87624C61.2065 9.36977 61.2746 8.93236 61.4332 8.61005C61.5919 8.28775 61.8186 8.05754 62.136 7.89638C62.4533 7.75825 62.8614 7.66617 63.3601 7.66617H71.6796C72.2464 7.66617 72.6544 7.8043 72.9264 8.05754C73.1985 8.31078 73.3345 8.63307 73.3345 9.04746C73.3345 9.46185 73.1985 9.80718 72.9264 10.0604C72.6544 10.3137 72.2237 10.4518 71.6796 10.4518H71.7023Z" fill="#27AAE1"/>
<path d="M26.2508 9.02446C25.8428 9.66906 25.4347 10.3367 25.0267 10.9813C24.9587 11.0964 24.868 11.2115 24.8 11.3266C24.732 11.2115 24.6413 11.1194 24.5733 11.0043C24.1879 10.4057 23.7799 9.78417 23.4172 9.16258C22.9411 8.35683 23.0998 7.36691 23.8932 6.83741C25.3214 5.91655 26.9989 7.50503 26.2282 9.00144L26.2508 9.02446Z" fill="#F7941D"/>
<path d="M78.2309 14.1583V23.6892C78.2309 24.3568 78.0722 24.8403 77.7776 25.1856C77.4602 25.5309 77.0748 25.6921 76.5988 25.6921C76.1227 25.6921 75.7373 25.5079 75.4426 25.1626C75.1479 24.8172 74.9893 24.3108 74.9893 23.6662V14.2273C74.9893 13.5827 75.1479 13.0762 75.4426 12.7539C75.7373 12.4316 76.1227 12.2475 76.5988 12.2475C77.0748 12.2475 77.4602 12.4086 77.7776 12.7539C78.0949 13.0993 78.2309 13.5367 78.2309 14.1352V14.1583Z" fill="#27AAE1"/>
<path d="M82.9688 14.1122V14.5036C83.5355 13.7439 84.1703 13.1684 84.8503 12.823C85.5304 12.4547 86.3011 12.2935 87.1852 12.2935C88.0693 12.2935 88.7947 12.4777 89.4748 12.8691C90.1549 13.2374 90.6536 13.7899 90.9936 14.4806C91.1977 14.8719 91.3563 15.3094 91.4017 15.7928C91.4697 16.2532 91.4924 16.8518 91.4924 17.5885V23.7122C91.4924 24.3799 91.3337 24.8633 91.039 25.2086C90.7443 25.554 90.3589 25.7151 89.8829 25.7151C89.4068 25.7151 88.9988 25.5309 88.7041 25.1856C88.4094 24.8403 88.2507 24.3338 88.2507 23.6892V18.1871C88.2507 17.105 88.092 16.2763 87.7973 15.7007C87.5026 15.1252 86.9132 14.8259 86.0291 14.8259C85.145 14.8259 84.9183 15.0101 84.4423 15.3554C83.9662 15.7007 83.6262 16.1842 83.3995 16.8058C83.2408 17.2892 83.1728 18.2101 83.1728 19.5684V23.6892C83.1728 24.3568 83.0141 24.8633 82.7194 25.1856C82.4247 25.5079 82.0167 25.6921 81.5407 25.6921C81.0646 25.6921 80.6792 25.5079 80.3845 25.1626C80.0898 24.8173 79.9312 24.3108 79.9312 23.6662V14.1353C79.9312 13.5137 80.0672 13.0302 80.3392 12.7309C80.6112 12.4317 80.9739 12.2705 81.45 12.2705C81.926 12.2705 81.994 12.3396 82.2207 12.4777C82.4474 12.6158 82.6288 12.823 82.7648 13.0993C82.9008 13.3755 82.9688 13.6978 82.9688 14.1122Z" fill="#27AAE1"/>
<path d="M117.834 19.7985H111.486C111.486 20.5583 111.645 21.2029 111.94 21.7784C112.235 22.3539 112.62 22.7914 113.096 23.0676C113.572 23.3669 114.116 23.505 114.683 23.505C115.249 23.505 115.431 23.459 115.748 23.3669C116.066 23.2748 116.383 23.1367 116.678 22.9295C116.972 22.7223 117.267 22.5151 117.516 22.2849C117.766 22.0547 118.106 21.7554 118.514 21.364C118.673 21.2259 118.922 21.1568 119.217 21.1568C119.511 21.1568 119.829 21.2489 120.033 21.4331C120.237 21.6173 120.35 21.8705 120.35 22.2158C120.35 22.5611 120.237 22.8604 120.01 23.2518C119.783 23.6431 119.443 24.0345 118.967 24.4029C118.514 24.7712 117.924 25.0705 117.222 25.3237C116.519 25.5539 115.703 25.6921 114.796 25.6921C112.711 25.6921 111.101 25.0935 109.922 23.8734C108.766 22.6762 108.177 21.0187 108.177 18.9698C108.177 16.9208 108.313 17.082 108.607 16.2532C108.902 15.4244 109.31 14.7108 109.854 14.1122C110.398 13.5136 111.078 13.0532 111.872 12.7309C112.665 12.4086 113.549 12.2475 114.547 12.2475C115.544 12.2475 116.904 12.5237 117.811 13.0532C118.718 13.6057 119.398 14.2964 119.851 15.1712C120.305 16.023 120.531 16.9208 120.531 17.7957C120.531 18.6705 120.305 19.1539 119.829 19.4072C119.353 19.6604 118.695 19.7755 117.856 19.7755L117.834 19.7985ZM111.486 17.9108H117.38C117.312 16.7827 116.995 15.9309 116.474 15.3784C115.952 14.8259 115.272 14.5496 114.433 14.5496C113.595 14.5496 112.96 14.8259 112.439 15.4014C111.917 15.977 111.6 16.8057 111.486 17.9108Z" fill="#27AAE1"/>
<path d="M125.383 20.9266V23.6892C125.383 24.3568 125.224 24.8633 124.929 25.1856C124.612 25.5079 124.226 25.6921 123.75 25.6921C123.274 25.6921 122.889 25.5309 122.594 25.1856C122.3 24.8403 122.141 24.3568 122.141 23.6892V14.5036C122.141 13.0302 122.662 12.2935 123.728 12.2935C124.793 12.2935 124.657 12.4777 124.884 12.823C125.111 13.1683 125.247 13.6748 125.269 14.3654C125.655 13.6978 126.063 13.1683 126.471 12.823C126.879 12.4777 127.423 12.2935 128.103 12.2935C128.783 12.2935 129.44 12.4777 130.098 12.823C130.755 13.1683 131.05 13.6287 131.05 14.2043C131.05 14.7798 130.914 14.941 130.642 15.1942C130.37 15.4474 130.075 15.5856 129.758 15.5856C129.44 15.5856 129.35 15.5165 128.896 15.3554C128.443 15.2172 128.035 15.1251 127.695 15.1251C127.355 15.1251 126.833 15.2633 126.539 15.5165C126.244 15.7697 125.995 16.1381 125.836 16.6446C125.677 17.151 125.564 17.7266 125.496 18.4172C125.428 19.1079 125.405 19.9367 125.405 20.9266H125.383Z" fill="#27AAE1"/>
<path d="M142.861 21.364C142.861 22.2849 142.634 23.0446 142.203 23.6892C141.772 24.3338 141.115 24.8173 140.276 25.1626C139.415 25.4849 138.395 25.6691 137.171 25.6691C135.946 25.6691 135.017 25.4849 134.178 25.1166C133.34 24.7482 132.727 24.3108 132.342 23.7583C131.957 23.2058 131.753 22.6763 131.753 22.1237C131.753 21.5712 131.889 21.4561 132.138 21.2029C132.387 20.9496 132.705 20.8115 133.09 20.8115C133.476 20.8115 133.702 20.9036 133.884 21.0648C134.065 21.2259 134.246 21.4791 134.405 21.7784C134.745 22.377 135.13 22.8144 135.606 23.0907C136.06 23.3899 136.695 23.5281 137.511 23.5281C138.327 23.5281 138.689 23.3899 139.12 23.0907C139.551 22.7914 139.755 22.4691 139.755 22.0777C139.755 21.5022 139.528 21.0648 139.097 20.8115C138.667 20.5353 137.964 20.282 136.967 20.0518C135.856 19.7755 134.949 19.4763 134.246 19.154C133.544 18.8547 132.977 18.4403 132.569 17.9338C132.138 17.4273 131.934 16.8058 131.934 16.0691C131.934 15.3324 132.138 14.7799 132.523 14.2043C132.909 13.6058 133.476 13.1453 134.246 12.8C134.994 12.4547 135.924 12.2705 136.989 12.2705C138.055 12.2705 138.576 12.3626 139.256 12.5468C139.936 12.7309 140.48 12.9612 140.934 13.2604C141.387 13.5597 141.727 13.882 141.954 14.2504C142.18 14.6187 142.294 14.964 142.294 15.3094C142.294 15.6547 142.158 16 141.908 16.2302C141.659 16.4604 141.296 16.5986 140.843 16.5986C140.39 16.5986 140.231 16.5065 139.982 16.2993C139.755 16.1151 139.483 15.8158 139.188 15.4245C138.939 15.1022 138.644 14.8489 138.327 14.6417C137.987 14.4576 137.533 14.3425 136.967 14.3425C136.4 14.3425 135.901 14.4806 135.493 14.7338C135.108 14.9871 134.904 15.3094 134.904 15.6777C134.904 16.0461 135.04 16.2993 135.334 16.5295C135.629 16.7597 136.014 16.9439 136.491 17.082C136.967 17.2202 137.647 17.4043 138.485 17.6115C139.483 17.8648 140.322 18.164 140.956 18.5094C141.591 18.8547 142.067 19.2691 142.407 19.7295C142.724 20.1899 142.906 20.7425 142.906 21.341L142.861 21.364Z" fill="#27AAE1"/>
<path d="M106.522 8.35685V18.8777C106.522 18.9928 106.522 19.0849 106.522 19.2V19.2461C106.522 19.3381 106.522 19.4533 106.522 19.5453C106.522 19.5453 106.522 19.5914 106.522 19.6144C106.522 19.6835 106.522 19.7756 106.499 19.8446C106.499 19.9597 106.454 20.0748 106.454 20.1899C106.454 20.236 106.454 20.282 106.431 20.3051C106.431 20.3971 106.386 20.4662 106.363 20.5583C106.341 20.6734 106.318 20.7655 106.273 20.8806C106.25 20.9727 106.205 21.0878 106.182 21.1799C106.182 21.1799 106.182 21.2029 106.182 21.2259C106.137 21.318 106.114 21.4101 106.069 21.5252C106.046 21.6173 106.001 21.6863 105.955 21.7784C105.955 21.8015 105.933 21.8475 105.91 21.8705C105.865 21.9396 105.842 22.0317 105.797 22.1007C105.706 22.2849 105.593 22.4691 105.479 22.6302C105.411 22.7223 105.343 22.8144 105.275 22.9295C105.207 22.9986 105.162 23.0907 105.094 23.1597C105.094 23.1597 105.094 23.1827 105.071 23.2058C105.003 23.2748 104.958 23.3439 104.89 23.436C104.822 23.505 104.754 23.5971 104.686 23.6662C104.595 23.7583 104.504 23.8504 104.414 23.9194C104.368 23.9655 104.3 24.0115 104.255 24.0576C104.255 24.0576 104.21 24.0806 104.21 24.1036C104.164 24.1497 104.119 24.1727 104.074 24.2187C104.074 24.2187 104.074 24.2187 104.051 24.2187C104.006 24.2648 103.938 24.2878 103.892 24.3338C103.847 24.3799 103.779 24.4259 103.734 24.4489C103.688 24.472 103.643 24.495 103.598 24.541C103.462 24.6331 103.303 24.7252 103.144 24.8173C103.076 24.8633 103.008 24.8863 102.94 24.9324C102.872 24.9554 102.804 25.0015 102.736 25.0245C102.555 25.1166 102.374 25.1856 102.192 25.2547C102.101 25.2777 102.033 25.3238 101.943 25.3468C101.943 25.3468 101.943 25.3468 101.92 25.3468C101.829 25.3698 101.739 25.3928 101.648 25.4158C101.557 25.4389 101.444 25.4619 101.353 25.4849C101.285 25.4849 101.24 25.5079 101.172 25.5309C101.172 25.5309 101.127 25.5309 101.104 25.5309C101.036 25.5309 100.968 25.531 100.9 25.554C100.809 25.554 100.741 25.554 100.651 25.577C100.605 25.577 100.56 25.577 100.492 25.577C100.424 25.577 100.356 25.577 100.288 25.577C100.265 25.577 100.243 25.577 100.22 25.577C100.107 25.577 100.016 25.577 99.9026 25.577C99.7892 25.577 99.6759 25.577 99.5852 25.577C99.5172 25.577 99.4492 25.577 99.3812 25.577C99.2905 25.577 99.1999 25.577 99.1092 25.554C99.0185 25.554 98.9278 25.554 98.8371 25.5079C98.7465 25.5079 98.6558 25.4849 98.5651 25.4619C98.4744 25.4619 98.3838 25.4158 98.2931 25.3928C98.2477 25.3928 98.2024 25.3698 98.1344 25.3468C98.0664 25.3468 97.9984 25.3007 97.9304 25.2777C97.9304 25.2777 97.885 25.2777 97.8624 25.2777C97.817 25.2777 97.749 25.2547 97.7037 25.2317C97.6357 25.2317 97.5904 25.1856 97.5223 25.1626C97.4317 25.1396 97.3637 25.0935 97.273 25.0705C97.1596 25.0245 97.0463 24.9784 96.9329 24.9094C96.8649 24.8863 96.7969 24.8403 96.7289 24.8173C96.7063 24.8173 96.6609 24.7943 96.6382 24.7712C96.5702 24.7252 96.4796 24.6792 96.4116 24.6331C96.3209 24.5871 96.2302 24.518 96.1395 24.472C96.0488 24.4029 95.9582 24.3568 95.8675 24.2878C95.7768 24.2187 95.7088 24.1727 95.6181 24.1036C95.6181 24.1036 95.6181 24.1036 95.5955 24.1036C95.5275 24.0345 95.4368 23.9655 95.3688 23.8964C95.3008 23.8274 95.2101 23.7583 95.1421 23.6892C95.0741 23.6202 94.9834 23.5281 94.9154 23.436C94.8474 23.3669 94.7794 23.2748 94.7114 23.2058C94.7114 23.2058 94.6887 23.1597 94.666 23.1367C94.6207 23.0907 94.598 23.0446 94.5527 22.9756C94.5074 22.9295 94.4847 22.8835 94.4394 22.8374C94.4394 22.8374 94.4167 22.8144 94.4167 22.7914C94.3713 22.7453 94.326 22.6763 94.3033 22.6072C94.19 22.4461 94.0993 22.2849 94.0086 22.1238C93.9633 22.0547 93.9406 21.9856 93.8953 21.9166C93.85 21.8475 93.8273 21.7784 93.782 21.6863C93.7366 21.5712 93.6913 21.4791 93.6459 21.364C93.5779 21.2259 93.5326 21.0648 93.4873 20.9266C93.4873 20.8576 93.4419 20.7885 93.4192 20.7194C93.4192 20.6964 93.4192 20.6504 93.3966 20.6274C93.3966 20.5583 93.3512 20.4662 93.3286 20.3971C93.2152 19.8446 93.1699 19.2691 93.1472 18.6935C93.1472 18.5784 93.1472 18.4633 93.1472 18.3482C93.1472 18.2561 93.1472 18.1871 93.1472 18.095C93.1699 17.8417 93.2152 17.5885 93.2606 17.3583C93.2832 17.2432 93.3059 17.1511 93.3512 17.036C93.3739 16.9209 93.4192 16.8288 93.4419 16.7137C93.4646 16.5986 93.5099 16.5065 93.5553 16.4144C93.6006 16.3223 93.6233 16.2072 93.6686 16.1151C93.7139 16.023 93.7593 15.931 93.8046 15.8158C93.8046 15.8158 93.8046 15.8158 93.8046 15.7928C93.85 15.7007 93.8953 15.6317 93.9406 15.5396C93.9406 15.5396 93.9406 15.5166 93.9633 15.4935C94.0086 15.4245 94.054 15.3554 94.0766 15.2863C94.0766 15.2633 94.0993 15.2403 94.122 15.2173C94.1673 15.1482 94.2127 15.0792 94.258 15.0101C94.3033 14.941 94.3713 14.8489 94.4167 14.7799C94.4167 14.7799 94.4167 14.7568 94.4394 14.7338C94.5074 14.6648 94.5527 14.5957 94.6207 14.5036C94.6887 14.4115 94.7567 14.3425 94.8247 14.2734C94.8927 14.2043 94.9607 14.1122 95.0514 14.0432C95.0514 14.0432 95.0514 14.0432 95.0741 14.0432C95.1421 13.9741 95.2101 13.9051 95.2781 13.836C95.3461 13.7669 95.4368 13.6979 95.5048 13.6518C95.5728 13.5827 95.6408 13.5367 95.7315 13.4676C95.9355 13.3065 96.1395 13.1684 96.3436 13.0533C96.4116 13.0072 96.4796 12.9842 96.5249 12.9381C96.7516 12.823 96.9783 12.7079 97.2276 12.6158C97.2957 12.5928 97.341 12.5698 97.409 12.5468C97.613 12.4777 97.7944 12.4087 97.9984 12.3626C98.0437 12.3626 98.1117 12.3396 98.1571 12.3166C98.2251 12.3166 98.2704 12.2935 98.3384 12.2705C98.7691 12.1784 99.2225 12.1324 99.6759 12.1324C100.129 12.1324 99.8799 12.1324 99.9933 12.1324C100.084 12.1324 100.152 12.1324 100.243 12.1324C100.311 12.1324 100.356 12.1324 100.424 12.1324C100.515 12.1324 100.605 12.1324 100.696 12.1784C100.741 12.1784 100.787 12.1784 100.809 12.1784C100.855 12.1784 100.923 12.1784 100.968 12.2015C101.013 12.2015 101.059 12.2015 101.104 12.2245C101.149 12.2245 101.195 12.2245 101.24 12.2475C101.285 12.2475 101.353 12.2705 101.399 12.2935C101.512 12.3166 101.625 12.3626 101.739 12.3856C101.784 12.3856 101.852 12.4086 101.897 12.4317C101.943 12.4317 101.988 12.4547 102.033 12.4777C102.169 12.5238 102.328 12.5928 102.464 12.6619C102.51 12.6619 102.555 12.7079 102.623 12.7309C102.714 12.777 102.827 12.823 102.918 12.8921C103.008 12.9381 103.076 12.9842 103.144 13.0302V8.518C103.144 7.80433 103.28 7.27484 103.552 6.90649C103.824 6.53814 104.232 6.35397 104.754 6.35397C105.275 6.35397 105.661 6.51512 105.955 6.86044C106.227 7.20577 106.386 7.68923 106.386 8.33383L106.522 8.35685Z" fill="#27AAE1"/>
<path d="M99.812 22.8605C101.94 22.8605 103.666 21.1082 103.666 18.9468C103.666 16.7853 101.94 15.0331 99.812 15.0331C97.6836 15.0331 95.9583 16.7853 95.9583 18.9468C95.9583 21.1082 97.6836 22.8605 99.812 22.8605Z" fill="white"/>
<path d="M102.294 21.5539L101.381 22.2735L103.437 24.9657L104.351 24.2461L102.294 21.5539Z" fill="white"/>
<path d="M97.0235 19.4302C96.9102 19.4302 96.8195 19.3611 96.7968 19.246C96.7741 19.0849 96.7515 18.9007 96.7515 18.7396C96.7515 17.4503 97.6582 16.2993 98.905 16.023C99.0184 16 99.1544 16.069 99.1771 16.2072C99.1997 16.3223 99.1317 16.4604 98.9957 16.4834C97.9529 16.7137 97.2048 17.6806 97.2048 18.7626C97.2048 19.8446 97.2048 19.0388 97.2502 19.177C97.2729 19.2921 97.1822 19.4302 97.0688 19.4532C97.0688 19.4532 97.0462 19.4532 97.0235 19.4532V19.4302Z" fill="#27AAE1"/>
<path d="M150.114 32.046H-0.0678711V0.0460205H150.114V32.046ZM0.544194 31.4244H149.48V0.667603H0.544194V31.4244Z" fill="#27AAE1"/>
</g>
<defs>
<clipPath id="clip0_36_818">
<rect width="150.069" height="32" fill="white"/>
</clipPath>
</defs>
</svg>
